<svg xmlns="http://www.w3.org/2000/svg" viewBox="0 0 340.21 211.28">
  <defs>
    <style>
      .a {
        fill: #d5d5d5;
      }

      .b {
        fill: #fff;
      }

      .c {
        fill: #636363;
      }
    </style>
  </defs>
  <path class="a" d="M340,159.31c-4.74-86-35.9-128.7-35.9-128.7C288.3,9.53,269.17,2.91,251.87.39s-22.31,7.87-22.31,7.87C201.7,4,170.11,4.19,170.11,4.19S138.51,4,110.65,8.26c0,0-5-10.38-22.3-7.87S51.91,9.53,36.14,30.61c0,0-31.16,42.67-35.9,128.7-2.82,51.08,19.68,55.36,38.43,50.4a60.08,60.08,0,0,0,30.55-19.66c7.51-9,19.64-25.32,34-28,17.28-3.26,33.14-4.77,45.09-4.78l21.82,0,21.81,0c12,0,27.82,1.52,45.09,4.78,14.34,2.71,26.47,19,34,28a60.06,60.06,0,0,0,30.56,19.66C320.29,214.67,342.79,210.39,340,159.31Z"/>
  <circle class="b" cx="88.54" cy="85.75" r="45.22"/>
  <circle class="b" cx="251.67" cy="85.75" r="45.22"/>
  <circle class="c" cx="251.67" cy="85.75" r="13.8"/>
  <circle class="c" cx="103.8" cy="112.12" r="13.8"/>
</svg>
