<svg xmlns="http://www.w3.org/2000/svg" viewBox="0 0 718.86 362.46">
  <defs>
    <style>
      .a {
        fill: none;
        stroke: #d5d5d5;
        stroke-miterlimit: 10;
        stroke-width: 31px;
      }

      .b {
        fill: #c1c1c1;
      }

      .c {
        fill: #ff9400;
      }

      .d {
        fill: #d5d5d5;
      }
    </style>
  </defs>
  <g>
    <g>
      <line class="a" x1="443.12" y1="283.88" x2="641.43" y2="84.58"/>
      <line class="a" x1="444.12" y1="85.58" x2="642.42" y2="284.87"/>
      <circle class="b" cx="542.77" cy="184.23" r="41.15"/>
      <circle class="c" cx="443.69" cy="85.08" r="77.29"/>
      <circle class="c" cx="641.55" cy="84.87" r="77.29"/>
      <circle class="c" cx="640.56" cy="284.16" r="77.29"/>
      <circle class="c" cx="443.25" cy="284.16" r="77.29"/>
    </g>
    <path class="d" d="M0,153.93q0-17.85,22.36-17.85h4.81V92.57Q27.17.48,123.23,0h1q36.87,0,47.31,7.48L173,9.41l1,2.41V42q0,12.32-5.82,12.31-2.43,0-7.4-4.64t-14.19-9a48.63,48.63,0,0,0-21.22-4.41q-12,0-19.17,3.5a18.85,18.85,0,0,0-9.82,10.62,67.35,67.35,0,0,0-3.52,12.06,82.52,82.52,0,0,0-.85,13.39v60.32h27.28q10.86,0,16.05,5.43a17.52,17.52,0,0,1,5.19,12.42,22.5,22.5,0,0,1-1.21,7.36q-1.22,3.51-6.64,7.24t-14.36,3.74H93.64V336.82a56,56,0,0,1-.61,9.65,37.8,37.8,0,0,1-2.56,7.6,11.83,11.83,0,0,1-6.94,6.4q-5,1.93-13.51,1.93H49.08q-10.47,0-15.7-4.71t-5.73-8.44a77.31,77.31,0,0,1-.48-9.53V172.27H21.4Q0,172.27,0,153.93Z"/>
    <path class="d" d="M193.21,340.2V29q0-23.16,20.86-23.4h22.81q22.8,0,22.8,22.44V338.27a68.92,68.92,0,0,1-.49,9.41,22.59,22.59,0,0,1-2.42,7.12,11.48,11.48,0,0,1-6.67,5.43,47.78,47.78,0,0,1-12.74,2.17H217q-11.4,0-17.58-4.47T193.21,340.2Z"/>
    <path class="d" d="M276.9,54.08V29.47a40.39,40.39,0,0,1,1.7-12.91,11.36,11.36,0,0,1,6.18-7,25.27,25.27,0,0,1,6.68-2.3c1.45-.15,4-.4,7.76-.72h25.23q10.43,0,16.73,4.7t6.31,18.22V55.05a27.94,27.94,0,0,1-.85,7.11,23,23,0,0,1-2.06,5.43,20,20,0,0,1-2.91,4,10,10,0,0,1-3.52,2.54c-1.21.48-2.54,1-4,1.44a11.53,11.53,0,0,1-3.4.73,13.71,13.71,0,0,0-3.15.48H299.7q-10.43,0-16.61-4.7T276.9,54.08Zm1.94,284.71V159.28q0-22.2,21.83-22.2h20.38q10.92,0,16.62,4t6.67,8.45a60.47,60.47,0,0,1,1,12.18V341.2q0,22.2-21.83,22.2H300.67q-10.43,0-15.64-4.95t-5.7-8.81A90.93,90.93,0,0,1,278.84,338.79Z"/>
  </g>
</svg>
