<?xml version="1.0" encoding="utf-8"?>
<svg version="1.1" id="Layer_1" xmlns="http://www.w3.org/2000/svg" xmlns:xlink="http://www.w3.org/1999/xlink" x="0px" y="0px"
	 viewBox="0 0 1920 1080" style="enable-background:new 0 0 1920 1080;" xml:space="preserve">
<style type="text/css">
	.st0{clip-path:url(#SVGID_00000116955662310502408250000008996271717606231736_);fill:#FFFFFF;}
	.st1{clip-path:url(#SVGID_00000116955662310502408250000008996271717606231736_);fill:#0076BA;}
	.st2{clip-path:url(#SVGID_00000116955662310502408250000008996271717606231736_);fill:none;stroke:#0076BA;stroke-width:6;}
	.st3{clip-path:url(#SVGID_00000055674346191406539380000013421132283630177205_);}
	.st4{fill:#FFFFFF;}
	.st5{font-family:'Tahoma';}
	.st6{font-size:60px;}
	.st7{clip-path:url(#SVGID_00000057846011469822040540000011754501750068092081_);fill:none;stroke:#0076BA;stroke-width:6;}
	
		.st8{clip-path:url(#SVGID_00000057846011469822040540000011754501750068092081_);fill:none;stroke:#0076BA;stroke-width:6;stroke-dasharray:12,12;}
	.st9{clip-path:url(#SVGID_00000031912132892401345140000018376817810309323944_);}
	.st10{letter-spacing:-1;}
	.st11{clip-path:url(#SVGID_00000096022444481931167570000018189382621257791423_);fill:none;stroke:#D5D5D5;stroke-width:6;}
	.st12{clip-path:url(#SVGID_00000096022444481931167570000018189382621257791423_);fill:#D5D5D5;}
	.st13{clip-path:url(#SVGID_00000096022444481931167570000018189382621257791423_);}
	.st14{font-size:40px;}
	
		.st15{clip-path:url(#SVGID_00000096022444481931167570000018189382621257791423_);fill:none;stroke:#D5D5D5;stroke-width:6;stroke-dasharray:12,12;}
	.st16{letter-spacing:-3;}
	.st17{clip-path:url(#SVGID_00000096022444481931167570000018189382621257791423_);fill:none;stroke:#0076BA;stroke-width:6;}
	.st18{clip-path:url(#SVGID_00000178923025368094801390000008109591059568692644_);}
	.st19{clip-path:url(#SVGID_00000170245726615134129150000014803823133490835355_);fill:none;stroke:#D5D5D5;stroke-width:6;}
	.st20{clip-path:url(#SVGID_00000170245726615134129150000014803823133490835355_);fill:#D5D5D5;}
	.st21{clip-path:url(#SVGID_00000170245726615134129150000014803823133490835355_);}
	.st22{clip-path:url(#SVGID_00000170245726615134129150000014803823133490835355_);fill:none;stroke:#FF9300;stroke-width:6;}
	.st23{clip-path:url(#SVGID_00000137829079020238483810000004945639728221863820_);}
	.st24{clip-path:url(#SVGID_00000127742992435002359440000017943924755103710901_);fill:none;stroke:#0076BA;stroke-width:6;}
	.st25{clip-path:url(#SVGID_00000172413095142863711730000006643673940354901182_);}
	.st26{fill:#333333;}
	.st27{clip-path:url(#SVGID_00000057841300642942441540000015331613196773382808_);fill:none;stroke:#0076BA;stroke-width:3;}
	.st28{clip-path:url(#SVGID_00000015346235126698654330000007941041458912523396_);}
	.st29{font-size:30px;}
</style>
<g>
	<defs>
		<rect id="SVGID_1_" width="1920" height="1080"/>
	</defs>
	<clipPath id="SVGID_00000171677823290121104880000004951624621648774806_">
		<use xlink:href="#SVGID_1_"  style="overflow:visible;"/>
	</clipPath>
	
		<rect style="clip-path:url(#SVGID_00000171677823290121104880000004951624621648774806_);fill:#FFFFFF;" width="1920" height="1080"/>
	<path style="clip-path:url(#SVGID_00000171677823290121104880000004951624621648774806_);fill:#0076BA;" d="M781,353.4h358
		c8.4,0,13.4,0,16.7,1.4c4.8,1.8,8.6,5.6,10.4,10.4c1.4,3.3,1.4,8.4,1.4,16.7v268.8c0,8.4,0,13.4-1.4,16.7
		c-1.8,4.8-5.6,8.6-10.4,10.4c-3.3,1.4-8.4,1.4-16.7,1.4H781c-8.4,0-13.4,0-16.7-1.4c-4.8-1.8-8.6-5.6-10.4-10.4
		c-1.4-3.3-1.4-8.4-1.4-16.7V381.9c0-8.4,0-13.4,1.4-16.7c1.8-4.8,5.6-8.6,10.4-10.4C767.6,353.4,772.6,353.4,781,353.4z"/>
	
		<path style="clip-path:url(#SVGID_00000171677823290121104880000004951624621648774806_);fill:none;stroke:#0076BA;stroke-width:6;" d="
		M781,353.4h358c8.4,0,13.4,0,16.7,1.4c4.8,1.8,8.6,5.6,10.4,10.4c1.4,3.3,1.4,8.4,1.4,16.7v268.8c0,8.4,0,13.4-1.4,16.7
		c-1.8,4.8-5.6,8.6-10.4,10.4c-3.3,1.4-8.4,1.4-16.7,1.4H781c-8.4,0-13.4,0-16.7-1.4c-4.8-1.8-8.6-5.6-10.4-10.4
		c-1.4-3.3-1.4-8.4-1.4-16.7V381.9c0-8.4,0-13.4,1.4-16.7c1.8-4.8,5.6-8.6,10.4-10.4C767.6,353.4,772.6,353.4,781,353.4z"/>
</g>
<g>
	<defs>
		<rect id="SVGID_00000039115730048533150280000004801426134829330596_" x="737.4" y="353.4" width="445.2" height="325.8"/>
	</defs>
	<clipPath id="SVGID_00000016774010820287457580000002865762276517841055_">
		<use xlink:href="#SVGID_00000039115730048533150280000004801426134829330596_"  style="overflow:visible;"/>
	</clipPath>
	<g style="clip-path:url(#SVGID_00000016774010820287457580000002865762276517841055_);">
		<text transform="matrix(1 0 0 1 877.1631 540.0012)" class="st4 st5 st6">ESP32</text>
	</g>
</g>
<g>
	<defs>
		<rect id="SVGID_00000075151113810300876960000013536007874996673433_" width="1920" height="1080"/>
	</defs>
	<clipPath id="SVGID_00000107586269070498659130000000925674275700912771_">
		<use xlink:href="#SVGID_00000075151113810300876960000013536007874996673433_"  style="overflow:visible;"/>
	</clipPath>
	
		<path style="clip-path:url(#SVGID_00000107586269070498659130000000925674275700912771_);fill:none;stroke:#0076BA;stroke-width:6;" d="
		M107.1,424.9h369.6c6.7,0,10.7,0,13.4,1.1c3.9,1.4,6.9,4.4,8.3,8.3c1.1,2.7,1.1,6.7,1.1,13.4v153.2c0,6.7,0,10.7-1.1,13.4
		c-1.4,3.9-4.4,6.9-8.3,8.3c-2.7,1.1-6.7,1.1-13.4,1.1H107.1c-6.7,0-10.7,0-13.4-1.1c-3.9-1.4-6.9-4.4-8.3-8.3
		c-1.1-2.7-1.1-6.7-1.1-13.4V447.6c0-6.7,0-10.7,1.1-13.4c1.4-3.9,4.4-6.9,8.3-8.3C96.4,424.9,100.4,424.9,107.1,424.9z"/>
	
		<path style="clip-path:url(#SVGID_00000107586269070498659130000000925674275700912771_);fill:none;stroke:#0076BA;stroke-width:6;stroke-dasharray:12,12;" d="
		M777.9,846.9h364.3c7.5,0,11.9,0,14.9,1.2c4.3,1.6,7.7,5,9.3,9.3c1.2,3,1.2,7.5,1.2,14.9V974c0,7.5,0,11.9-1.2,14.9
		c-1.6,4.3-5,7.7-9.3,9.3c-3,1.2-7.5,1.2-14.9,1.2H777.9c-7.5,0-11.9,0-14.9-1.2c-4.3-1.6-7.7-5-9.3-9.3c-1.2-3-1.2-7.5-1.2-14.9
		V872.4c0-7.5,0-11.9,1.2-14.9c1.6-4.3,5-7.7,9.3-9.3C765.9,846.9,770.4,846.9,777.9,846.9z"/>
</g>
<g>
	<defs>
		<rect id="SVGID_00000128454988870213717900000008065144461254055839_" x="737.3" y="846.9" width="445.4" height="152.5"/>
	</defs>
	<clipPath id="SVGID_00000124119398570885020400000016506660910002275730_">
		<use xlink:href="#SVGID_00000128454988870213717900000008065144461254055839_"  style="overflow:visible;"/>
	</clipPath>
	<g style="clip-path:url(#SVGID_00000124119398570885020400000016506660910002275730_);">
		<text transform="matrix(1 0 0 1 802.3304 947.0799)"><tspan x="0" y="0" class="st5 st6">RC </tspan><tspan x="92" y="0" class="st5 st6 st10">R</tspan><tspan x="128.2" y="0" class="st5 st6">ecei</tspan><tspan x="232.7" y="0" class="st5 st6">v</tspan><tspan x="262.2" y="0" class="st5 st6">er</tspan></text>
	</g>
</g>
<g>
	<defs>
		<rect id="SVGID_00000130607252134697782620000007941153577788369085_" width="1920" height="1080"/>
	</defs>
	<clipPath id="SVGID_00000168829390248542060830000011029723519784449157_">
		<use xlink:href="#SVGID_00000130607252134697782620000007941153577788369085_"  style="overflow:visible;"/>
	</clipPath>
	
		<path style="clip-path:url(#SVGID_00000168829390248542060830000011029723519784449157_);fill:none;stroke:#D5D5D5;stroke-width:6;" d="
		M429.1,526.4c96.1,19.6,194.9,26.9,296.4,22l3-0.2"/>
	<polygon style="clip-path:url(#SVGID_00000168829390248542060830000011029723519784449157_);fill:#D5D5D5;" points="726.2,560.4 
		749.5,547.1 724.8,536.5 	"/>
	<g style="clip-path:url(#SVGID_00000168829390248542060830000011029723519784449157_);">
		<text transform="matrix(1 0 0 1 571.0244 599.9149)" class="st5 st14">SPI</text>
	</g>
	
		<path style="clip-path:url(#SVGID_00000168829390248542060830000011029723519784449157_);fill:none;stroke:#D5D5D5;stroke-width:6;stroke-dasharray:12,12;" d="
		M991.9,843.9c7.9-38.5,9.3-84.5,4.4-137.8l-0.3-3"/>
	<polygon style="clip-path:url(#SVGID_00000168829390248542060830000011029723519784449157_);fill:#D5D5D5;" points="1008.2,704.8 
		993.7,682.3 984.4,707.4 	"/>
	<g style="clip-path:url(#SVGID_00000168829390248542060830000011029723519784449157_);">
		<text transform="matrix(1 0 0 1 746.5599 778.8257)"><tspan x="0" y="0" class="st5 st14">SBUS (</tspan><tspan x="122.2" y="0" class="st5 st14">U</tspan><tspan x="148.3" y="0" class="st5 st14">A</tspan><tspan x="172.2" y="0" class="st5 st14 st10">R</tspan><tspan x="196" y="0" class="st5 st14">T</tspan><tspan x="219.8" y="0" class="st5 st14">)</tspan></text>
	</g>
	
		<path style="clip-path:url(#SVGID_00000168829390248542060830000011029723519784449157_);fill:none;stroke:#D5D5D5;stroke-width:6;" d="
		M1170.5,537.8c72.8,3.7,147.2,3.8,223,0.3l3-0.2"/>
	<polygon style="clip-path:url(#SVGID_00000168829390248542060830000011029723519784449157_);fill:#D5D5D5;" points="1394.1,550 
		1417.5,536.8 1392.9,526 	"/>
	<g style="clip-path:url(#SVGID_00000168829390248542060830000011029723519784449157_);">
		<text transform="matrix(1 0 0 1 1236.025 523.2462)" class="st5 st14">PWM</text>
	</g>
	
		<path style="clip-path:url(#SVGID_00000168829390248542060830000011029723519784449157_);fill:none;stroke:#D5D5D5;stroke-width:6;" d="
		M1612.3,595.6c-10.7,73.2-11.3,149.1-2,227.5l0.4,3"/>
	<polygon style="clip-path:url(#SVGID_00000168829390248542060830000011029723519784449157_);fill:#D5D5D5;" points="1598.5,824.7 
		1613.5,846.9 1622.2,821.6 	"/>
	<g style="clip-path:url(#SVGID_00000168829390248542060830000011029723519784449157_);">
		<text transform="matrix(1 0 0 1 1450.277 736.9998)"><tspan x="0" y="0" class="st5 st14 st10">V</tspan><tspan x="22.1" y="0" class="st5 st14">o</tspan><tspan x="43.8" y="0" class="st5 st14">l</tspan><tspan x="53" y="0" class="st5 st14">tage</tspan></text>
	</g>
	<g style="clip-path:url(#SVGID_00000168829390248542060830000011029723519784449157_);">
		<text transform="matrix(1 0 0 1 212.8847 595.784)"><tspan x="0" y="0" class="st5 st6">G</tspan><tspan x="40" y="0" class="st5 st6 st16">Y</tspan><tspan x="70.8" y="0" class="st5 st6">-91</tspan></text>
	</g>
	
		<path style="clip-path:url(#SVGID_00000168829390248542060830000011029723519784449157_);fill:none;stroke:#0076BA;stroke-width:6;" d="
		M777.9,77.5h364.3c7.5,0,11.9,0,14.9,1.2c4.3,1.6,7.7,5,9.3,9.3c1.2,3,1.2,7.5,1.2,14.9v101.7c0,7.5,0,11.9-1.2,14.9
		c-1.6,4.3-5,7.7-9.3,9.3c-3,1.2-7.5,1.2-14.9,1.2H777.9c-7.5,0-11.9,0-14.9-1.2c-4.3-1.6-7.7-5-9.3-9.3c-1.2-3-1.2-7.5-1.2-14.9
		V103c0-7.5,0-11.9,1.2-14.9c1.6-4.3,5-7.7,9.3-9.3C765.9,77.5,770.4,77.5,777.9,77.5z"/>
</g>
<g>
	<defs>
		<rect id="SVGID_00000137820956330754408580000017691839315522467728_" x="737.3" y="77.5" width="445.4" height="152.5"/>
	</defs>
	<clipPath id="SVGID_00000016789657776342930330000013964875638603798149_">
		<use xlink:href="#SVGID_00000137820956330754408580000017691839315522467728_"  style="overflow:visible;"/>
	</clipPath>
	<g style="clip-path:url(#SVGID_00000016789657776342930330000013964875638603798149_);">
		<text transform="matrix(1 0 0 1 865.0551 177.6901)"><tspan x="0" y="0" class="st5 st6">B</tspan><tspan x="35.6" y="0" class="st5 st6">a</tspan><tspan x="67.1" y="0" class="st5 st6">t</tspan><tspan x="86.7" y="0" class="st5 st6">tery</tspan></text>
	</g>
</g>
<g>
	<defs>
		<rect id="SVGID_00000016756559387490335270000000552908433054081441_" width="1920" height="1080"/>
	</defs>
	<clipPath id="SVGID_00000171720285722730791730000010936644841389779363_">
		<use xlink:href="#SVGID_00000016756559387490335270000000552908433054081441_"  style="overflow:visible;"/>
	</clipPath>
	
		<path style="clip-path:url(#SVGID_00000171720285722730791730000010936644841389779363_);fill:none;stroke:#D5D5D5;stroke-width:6;" d="
		M925.7,233.1c-5.3,27.2-6.8,58.4-4.3,93.4l0.3,3"/>
	<polygon style="clip-path:url(#SVGID_00000171720285722730791730000010936644841389779363_);fill:#D5D5D5;" points="909.4,327.6 
		923.5,350.4 933.3,325.4 	"/>
	<g style="clip-path:url(#SVGID_00000171720285722730791730000010936644841389779363_);">
		<text transform="matrix(1 0 0 1 937.7745 299.4789)"><tspan x="0" y="0" class="st5 st14">&gt;3</tspan><tspan x="50.9" y="0" class="st5 st14">.</tspan><tspan x="62.1" y="0" class="st5 st14">7V</tspan></text>
	</g>
	
		<path style="clip-path:url(#SVGID_00000171720285722730791730000010936644841389779363_);fill:none;stroke:#D5D5D5;stroke-width:6;" d="
		M1170.6,161.5c228,25.6,371.6,110,430.8,253.1l1.1,2.8"/>
	<polygon style="clip-path:url(#SVGID_00000171720285722730791730000010936644841389779363_);fill:#D5D5D5;" points="1590.2,418.8 
		1609.8,437.1 1612.6,410.4 	"/>
	<g style="clip-path:url(#SVGID_00000171720285722730791730000010936644841389779363_);">
		<text transform="matrix(1 0 0 1 1396.229 204.8126)"><tspan x="0" y="0" class="st5 st14">&gt;3</tspan><tspan x="50.9" y="0" class="st5 st14">.</tspan><tspan x="62.1" y="0" class="st5 st14">7V</tspan></text>
	</g>
	
		<path style="clip-path:url(#SVGID_00000171720285722730791730000010936644841389779363_);fill:none;stroke:#FF9300;stroke-width:6;" d="
		M1445.9,849.9h364.3c7.5,0,11.9,0,14.9,1.2c4.3,1.6,7.7,5,9.3,9.3c1.2,3,1.2,7.5,1.2,14.9V977c0,7.5,0,11.9-1.2,14.9
		c-1.6,4.3-5,7.7-9.3,9.3c-3,1.2-7.5,1.2-14.9,1.2h-364.3c-7.5,0-11.9,0-14.9-1.2c-4.3-1.6-7.7-5-9.3-9.3c-1.2-3-1.2-7.5-1.2-14.9
		V875.4c0-7.5,0-11.9,1.2-14.9c1.6-4.3,5-7.7,9.3-9.3C1434,849.9,1438.5,849.9,1445.9,849.9z"/>
</g>
<g>
	<defs>
		<rect id="SVGID_00000125590519588794066770000004908208256101094292_" x="1405.4" y="849.9" width="445.4" height="152.5"/>
	</defs>
	<clipPath id="SVGID_00000020367246295901477730000005237269270844408247_">
		<use xlink:href="#SVGID_00000125590519588794066770000004908208256101094292_"  style="overflow:visible;"/>
	</clipPath>
	<g style="clip-path:url(#SVGID_00000020367246295901477730000005237269270844408247_);">
		<text transform="matrix(1 0 0 1 1507.9561 950.0799)" class="st5 st6">Motors </text>
	</g>
	<g style="clip-path:url(#SVGID_00000020367246295901477730000005237269270844408247_);">
		<text transform="matrix(1 0 0 1 1706.5596 950.0799)" class="st5 st14">x4</text>
	</g>
</g>
<g>
	<defs>
		<rect id="SVGID_00000078757851010072822240000012642622956562684587_" width="1920" height="1080"/>
	</defs>
	<clipPath id="SVGID_00000132802581807603645050000011682039405646066589_">
		<use xlink:href="#SVGID_00000078757851010072822240000012642622956562684587_"  style="overflow:visible;"/>
	</clipPath>
	
		<path style="clip-path:url(#SVGID_00000132802581807603645050000011682039405646066589_);fill:none;stroke:#0076BA;stroke-width:6;" d="
		M1445.9,440.1h364.3c7.5,0,11.9,0,14.9,1.2c4.3,1.6,7.7,5,9.3,9.3c1.2,3,1.2,7.5,1.2,14.9v101.7c0,7.5,0,11.9-1.2,14.9
		c-1.6,4.3-5,7.7-9.3,9.3c-3,1.2-7.5,1.2-14.9,1.2h-364.3c-7.5,0-11.9,0-14.9-1.2c-4.3-1.6-7.7-5-9.3-9.3c-1.2-3-1.2-7.5-1.2-14.9
		V465.5c0-7.5,0-11.9,1.2-14.9c1.6-4.3,5-7.7,9.3-9.3C1434,440.1,1438.5,440.1,1445.9,440.1z"/>
</g>
<g>
	<defs>
		<rect id="SVGID_00000121968229548182703620000008187702022402881724_" x="1405.4" y="440.1" width="445.4" height="152.5"/>
	</defs>
	<clipPath id="SVGID_00000130637550574198708210000000321319364498620830_">
		<use xlink:href="#SVGID_00000121968229548182703620000008187702022402881724_"  style="overflow:visible;"/>
	</clipPath>
	<g style="clip-path:url(#SVGID_00000130637550574198708210000000321319364498620830_);">
		<text transform="matrix(1 0 0 1 1486.833 540.213)" class="st5 st6">MOSFE</text>
	</g>
	<g style="clip-path:url(#SVGID_00000130637550574198708210000000321319364498620830_);">
		<text transform="matrix(1 0 0 1 1673.8936 540.213)" class="st26 st5 st6">T</text>
	</g>
	<g style="clip-path:url(#SVGID_00000130637550574198708210000000321319364498620830_);">
		<text transform="matrix(1 0 0 1 1708.9326 540.213)" class="st5 st6"> </text>
	</g>
	<g style="clip-path:url(#SVGID_00000130637550574198708210000000321319364498620830_);">
		<text transform="matrix(1 0 0 1 1727.6826 540.213)" class="st5 st14">x4</text>
	</g>
</g>
<g>
	<defs>
		<rect id="SVGID_00000038395453607794357290000016650519059911045024_" width="1920" height="1080"/>
	</defs>
	<clipPath id="SVGID_00000077303055156502403190000000114138446408493755_">
		<use xlink:href="#SVGID_00000038395453607794357290000016650519059911045024_"  style="overflow:visible;"/>
	</clipPath>
	
		<path style="clip-path:url(#SVGID_00000077303055156502403190000000114138446408493755_);fill:none;stroke:#0076BA;stroke-width:3;" d="
		M167.8,451H416c4.5,0,7.1,0,8.9,0.7c2.6,0.9,4.6,3,5.5,5.5c0.7,1.8,0.7,4.5,0.7,8.9v46.6c0,4.5,0,7.1-0.7,8.9
		c-0.9,2.6-3,4.6-5.5,5.5c-1.8,0.7-4.5,0.7-8.9,0.7H167.8c-4.5,0-7.1,0-8.9-0.7c-2.6-0.9-4.6-3-5.5-5.5c-0.7-1.8-0.7-4.5-0.7-8.9
		v-46.6c0-4.5,0-7.1,0.7-8.9c0.9-2.6,3-4.6,5.5-5.5C160.7,451,163.4,451,167.8,451z"/>
</g>
<g>
	<defs>
		<rect id="SVGID_00000077301502947632695740000005629016913768095395_" x="145.2" y="451" width="293.5" height="77"/>
	</defs>
	<clipPath id="SVGID_00000004518590643829462700000008680026774255780777_">
		<use xlink:href="#SVGID_00000077301502947632695740000005629016913768095395_"  style="overflow:visible;"/>
	</clipPath>
	<g style="clip-path:url(#SVGID_00000004518590643829462700000008680026774255780777_);">
		<text transform="matrix(1 0 0 1 197.8359 501.2101)" class="st5 st29">MPU9250 IMU</text>
	</g>
</g>
</svg>
